<svg xmlns="http://www.w3.org/2000/svg" xmlns:xlink="http://www.w3.org/1999/xlink" version="1.1" width="2371.92pt" height="599.04pt" viewBox="0 0 2371.92 599.04">
<defs>
<clipPath id="clip_0">
<path transform="matrix(.24,0,0,.24,0,0)" d="M0 0H9883.333V2494.2757H0Z" fill-rule="evenodd"/>
</clipPath>
</defs>
<g clip-path="url(#clip_0)">
<path transform="matrix(20.032423,0,0,20.027346,34.372724,-5383.8635)" d="M13.213772 271.8645C13.213772 271.8645 12.883358 273.43873 12.718284 274.1845 8.217846 274.45243 4.1691935 278.0541 3.6593238 282.91777L1.3230519 283.31407V283.77714C1.3230519 283.77714 2.9365507 284.11125 3.6330453 284.25837 3.8316396 289.12446 7.617283 293.06843 12.415957 293.51429L12.773908 295.67716H13.234993C13.234993 295.67716 13.534201 294.21147 13.675847 293.54759 18.6182 293.3674 22.62019 289.48857 22.99061 284.59797L25.13528 284.2421V283.7275C25.13528 283.7275 23.591063 283.47779 23.000613 283.35246 22.747694 278.4874 18.908944 274.56736 14.077295 274.19169L13.691035 271.86457 13.213772 271.8645ZM13.706205 275.20466C13.711705 275.2049 13.716966 275.20518 13.7224459 275.20567L14.79933 281.54478 13.736599 282.5649 13.706205 275.20466ZM12.487759 275.22795 11.39773 280.16175 11.283478 280.07374 7.632189 277.3278C8.957969 276.17057 10.633173 275.40428 12.487764 275.22789L12.487759 275.22795ZM14.25526 275.23963C16.166087 275.4446 17.889748 276.2659 19.221035 277.5053L15.080365 280.11073 14.25526 275.23963ZM6.982008 277.9441 9.481586 281.91545 4.7321798 282.73237C4.970908 280.89234 5.778166 279.23368 6.982008 277.94413V277.9441ZM19.803463 278.119C21.006737 279.47834 21.796029 281.21247 21.955206 283.1327L16.799338 282.0529 16.886288 281.93766 19.803463 278.119ZM9.563491 279.4313 10.83654 280.39079 10.78295 280.63548 9.563491 279.4313ZM17.524336 280.25328 16.572838 281.4948 16.339257 281.4453 17.524336 280.25328ZM10.924509 282.1904 12.002404 283.26817 4.6806108 283.29756C4.681127 283.28755 4.682161 283.27656 4.6827709 283.26625L10.924509 282.1904ZM21.888472 284.25794 15.45652 285.34983 14.436258 284.28828 21.888472 284.25794ZM4.6806108 284.47935 9.6423649 285.5318C8.654676 286.82499 7.667135 288.11878 6.67967 289.4121 5.5464966 288.05696 4.813057 286.35487 4.680611 284.47969L4.6806108 284.47935ZM21.94206 284.77558C21.734158 286.7518 20.863055 288.52555 19.55573 289.8762L16.88427 285.63227 21.94206 284.77558ZM12.728416 284.9717 12.758746 292.427 11.665683 285.99589 12.728416 284.9717ZM9.869871 286.0879 10.102438 286.1374 8.917363 287.3294 9.869871 286.0879ZM15.574821 286.93614 16.763945 288.1059 15.529321 287.16566 15.574821 286.93614ZM14.970147 287.39006C16.296875 288.40437 17.624348 289.41896 18.951058 290.43324 17.572674 291.6129 15.82501 292.37416 13.896303 292.5008L14.970147 287.39006ZM11.389643 287.44566 12.235979 292.45429C10.304952 292.21345 8.575041 291.34236 7.257042 290.04743L11.389643 287.44566Z" fill="#1d3545"/>
<path transform="matrix(4.472972,0,0,4.471838,650.6666,171.23328)" d="M11.04 17.24V5.6399996H12.92V20H10.74L3.4399996 8.4H3.3999997V20H1.5199996V5.6400005H3.8199998L11 17.240002H11.04V17.24ZM40.64 15.82H34.879999L33.379999 20H31.379998L36.78 5.6400005H38.98L44.18 20H42.06L40.64 15.82ZM35.48 14.1H39.94L37.82 7.78H37.78L35.48 14.1ZM72.04 5.64H73.98V14.959999C73.98 17.9 72.14001 20.38 68.200008 20.38 64.340007 20.38 62.680006 17.9 62.680006 15.219999V5.6399996H64.62V14.679999C64.62 17.8 66.520008 18.66 68.26 18.66 70.04 18.66 72.04 17.84 72.04 14.719999V5.6399996 5.64ZM92.48 7.36V5.6400005H104.14V7.3600008H99.28V20H97.34V7.3599998H92.479999L92.48 7.36ZM124.84 5.64V20H122.899997V5.6400005H124.84V5.64ZM156.78 9.96H154.9C154.36 7.44 152.26 6.98 150.87999 6.98 148.27999 6.98 146.18 8.9 146.18 12.68 146.18 16.060002 147.37999 18.66 150.93999 18.66 152.19998 18.66 154.37999 18.06 155.04 14.719999H156.92C156.12 20.14 151.72 20.38 150.64 20.38 147.38 20.38 144.18 18.259999 144.18 12.74 144.18 8.32 146.7 5.2599999 150.87999 5.2599999 154.57999 5.2599999 156.49999 7.5599997 156.77999 9.959999L156.78 9.96ZM186.4 9.84H184.57999C184.47998 7.62 182.63999 6.92 181.01999 6.92 179.79999 6.92 177.73999 7.26 177.73999 9.440001 177.73999 10.660001 178.59999 11.06 179.43999 11.26L183.54 12.200001C185.4 12.64 186.79999 13.76 186.79999 16.04 186.79999 19.44 183.63999 20.380002 181.18 20.380002 178.51999 20.380002 177.48 19.580002 176.84 19.000002 175.62 17.900002 175.37999 16.700003 175.37999 15.360002H177.2C177.2 17.960001 179.31999 18.720002 181.16 18.720002 182.56 18.720002 184.92 18.36 184.92 16.300002 184.92 14.800001 184.22 14.320002 181.86 13.760001L178.92 13.080001C177.98 12.860001 175.86 12.200001 175.86 9.700001 175.86 7.460001 177.32 5.2600009 180.8 5.2600009 185.82 5.2600009 186.32 8.26 186.40001 9.84H186.4ZM216.72 18.28V20H206.12V5.6400005H216.58V7.3600008H208.06V11.76H215.92V13.4800009H208.06V18.28H216.72ZM245.44 17.24V5.6399996H247.32V20H245.14002L237.84001 8.4H237.80002V20H235.92002V5.6400005H238.22002L245.40001 17.240002H245.44V17.24ZM277.5 9.84H275.68C275.58 7.62 273.74 6.92 272.12 6.92 270.9 6.92 268.84 7.26 268.84 9.440001 268.84 10.660001 269.69999 11.06 270.54 11.26L274.64 12.200001C276.5 12.64 277.90003 13.76 277.90003 16.04 277.90003 19.44 274.74003 20.380002 272.28004 20.380002 269.62004 20.380002 268.58003 19.580002 267.94004 19.000002 266.72004 17.900002 266.48005 16.700003 266.48005 15.360002H268.30006C268.30006 17.960001 270.42005 18.720002 272.26005 18.720002 273.66004 18.720002 276.02006 18.36 276.02006 16.300002 276.02006 14.800001 275.32005 14.320002 272.96006 13.760001L270.02006 13.080001C269.08006 12.860001 266.96006 12.200001 266.96006 9.700001 266.96006 7.460001 268.42005 5.2600009 271.90007 5.2600009 276.92005 5.2600009 277.42005 8.26 277.50007 9.84H277.5ZM308.28 12.82C308.28 9.44 306.4 6.9799997 303.28 6.9799997 300.16 6.9799997 298.28 9.44 298.28 12.82 298.28 16.2 300.16 18.66 303.28 18.66 306.4 18.66 308.28 16.2 308.28 12.82ZM310.28 12.82C310.28 15.92 308.63999 20.38 303.28 20.38 297.92 20.38 296.28 15.919999 296.28 12.82 296.28 9.72 297.92 5.2599999 303.28 5.2599999 308.63999 5.2599999 310.28 9.719999 310.28 12.82ZM331.42 13.84V20H329.48V5.6400005H336.12004C338.48 5.6400005 340.84004 6.4600007 340.84004 9.5 340.84004 11.62 339.76005 12.4 338.84004 12.940001 339.66004 13.280001 340.48005 13.64 340.56004 15.64L340.68003 18.24C340.7 19.039999 340.80003 19.34 341.40003 19.68V20H339.02003C338.74003 19.12 338.68003 16.94 338.68003 16.4 338.68003 15.219999 338.44004 13.84 336.12004 13.84H331.42ZM331.42 7.3V12.18H335.92C337.34004 12.18 338.84004 11.820001 338.84004 9.700001 338.84004 7.4800007 337.22004 7.3000009 336.26005 7.3000009H331.42005L331.42 7.3ZM370.82 9.84H369C368.9 7.62 367.06 6.92 365.44 6.92 364.22 6.92 362.16 7.26 362.16 9.440001 362.16 10.660001 363.02 11.06 363.86003 11.26L367.96003 12.200001C369.82 12.64 371.22004 13.76 371.22004 16.04 371.22004 19.44 368.06004 20.380002 365.60005 20.380002 362.94004 20.380002 361.90003 19.580002 361.26005 19.000002 360.04005 17.900002 359.80006 16.700003 359.80006 15.360002H361.62007C361.62007 17.960001 363.74006 18.720002 365.58006 18.720002 366.98005 18.720002 369.34007 18.36 369.34007 16.300002 369.34007 14.800001 368.64006 14.320002 366.28007 13.760001L363.34007 13.080001C362.40007 12.860001 360.28007 12.200001 360.28007 9.700001 360.28007 7.460001 361.74006 5.2600009 365.22007 5.2600009 370.24006 5.2600009 370.74006 8.26 370.82008 9.84H370.82Z"/>
<path transform="matrix(1.440274,0,0,1.439909,826.19119,375.13029)" d="M5.76 6C8.900001 6 10.72 7.92 10.72 10.52 10.72 13.120001 8.900001 14.960001 5.76 14.960001H2.8600002V20H1.2V6H5.76ZM5.72 13.48C7.74 13.48 9.059999 12.44 9.059999 10.5199999 9.059999 8.58 7.7399995 7.5599997 5.7199995 7.5599997H2.8599992V13.48H5.7199995 5.72ZM33.088 20H31.288002L27.748002 14.96H27.368002 24.468003V20H22.808003V6H27.368002C30.508002 6 32.328004 7.92 32.328004 10.52 32.328004 12.52 31.248003 14.08 29.328003 14.68L33.088 20ZM24.468 7.56V13.48H27.328001C29.348002 13.48 30.668002 12.44 30.668002 10.5199999 30.668002 8.58 29.348002 7.5599997 27.328001 7.5599997H24.468V7.56ZM51.936 5.8C55.576 5.8 59.096 8.76 59.096 13 59.096 17.24 55.576 20.2 51.936 20.2 48.276 20.2 44.776 17.240002 44.776 13.000001 44.776 8.76 48.276 5.800001 51.936 5.800001V5.8ZM51.936 18.62C54.676004 18.62 57.376 16.300002 57.376 13.000001 57.376 9.700001 54.676 7.380001 51.936 7.380001 49.176004 7.380001 46.496004 9.700001 46.496004 13.000001 46.496004 16.300002 49.176004 18.62 51.936 18.62ZM82.704 20 81.264 16.7H73.784L72.343997 20H70.58399L76.82399 6H78.20399L84.46399 20H82.70399 82.704ZM74.404 15.3H80.644L77.523998 8.18 74.404 15.3ZM107.812 18.5C106.532 19.6 104.911998 20.2 103.112 20.2 99.472 20.2 95.951999 17.240002 95.951999 13.000001 95.951999 8.76 99.47199 5.800001 103.112 5.800001 104.892 5.800001 106.492 6.400001 107.752 7.460001L106.732 8.620001C105.752 7.840001 104.492008 7.380001 103.232 7.380001 100.372 7.380001 97.672008 9.700001 97.672008 13.000001 97.672008 16.300002 100.372 18.62 103.232 18.62 104.512 18.62 105.792 18.140002 106.772 17.34L107.812 18.5ZM128.94 6V7.56H125.060009V20H123.4V7.5600006H119.5V6.0000007H128.94V6ZM142.788 6V20H141.12799V6H142.788ZM166.696 6H168.456L162.196 20H160.816L154.57599 6H156.33599L161.51598 17.82 166.696 6ZM181.904 18.44H188.56401V20H181.50402 180.24402V6H181.90402 188.38402V7.56H181.90402V12.2H186.94402V13.719999H181.90402V18.439999L181.904 18.44ZM218.7 6V20H217.04V6H218.7ZM241.048 6H242.70801V20H241.42801L232.94802 9.04V20H231.28801V6H232.56801L241.048 16.98V6ZM259.596 5.76C261.776 5.76 263.376 7.2000005 263.976 8.700001L262.716 9.380001C262.076 8.100001 261.056 7.260001 259.596 7.260001 258.056 7.260001 256.996 8.140001 256.996 9.360001 256.996 10.500001 257.716 11.22 259.236 11.800001L260.25599 12.180001C262.77598 13.120001 264.356 14.200001 264.356 16.420002 264.356 18.820002 262.056 20.300004 259.676 20.300004 257.296 20.300004 255.336 18.860003 254.79599 16.860003L256.136 16.220004C256.616 17.700003 257.87599 18.780003 259.676 18.780003 261.276 18.780003 262.636 17.860003 262.636 16.440003 262.636 14.840002 261.516 14.240003 259.856 13.600002L258.81599 13.200003C256.69599 12.4000029 255.33599 11.300003 255.33599 9.320003 255.33599 7.2800028 257.136 5.7600028 259.59599 5.7600028L259.596 5.76ZM278.104 6V20H276.444V6H278.104ZM303.952 12.96C304.25199 17.44 301.192 20.2 297.552 20.2 293.812 20.2 290.392 17.240002 290.392 13.000001 290.392 8.76 293.892 5.800001 297.552 5.800001 299.312 5.800001 300.912 6.400001 302.172 7.460001L301.152 8.620001C300.172 7.840001 298.91203 7.380001 297.652 7.380001 294.79203 7.380001 292.112 9.700001 292.112 13.000001 292.112 16.300002 294.712 18.62 297.552 18.62 300.032 18.62 302.012 17.28 302.392 14.400002H298.312V12.960001H303.95204L303.952 12.96ZM325.04 6H326.7V20H325.04V13.88H317.92V20H316.26V6H317.92V12.32H325.04V5.9999997 6ZM348.328 6V7.56H344.448V20H342.788V7.5600006H338.888V6.0000007H348.328V6ZM364.216 5.76C366.396 5.76 367.996 7.2000005 368.596 8.700001L367.336 9.380001C366.69599 8.100001 365.676 7.260001 364.216 7.260001 362.676 7.260001 361.616 8.140001 361.616 9.360001 361.616 10.500001 362.336 11.22 363.856 11.800001L364.87599 12.180001C367.39598 13.120001 368.97599 14.200001 368.97599 16.420002 368.97599 18.820002 366.676 20.300004 364.296 20.300004 361.916 20.300004 359.956 18.860003 359.416 16.860003L360.75599 16.220004C361.236 17.700003 362.49598 18.780003 364.296 18.780003 365.896 18.780003 367.25599 17.860003 367.25599 16.440003 367.25599 14.840002 366.136 14.240003 364.47599 13.600002L363.43598 13.200003C361.31599 12.4000029 359.95597 11.300003 359.95597 9.320003 359.95597 7.2800028 361.75596 5.7600028 364.21598 5.7600028L364.216 5.76ZM405.512 7.5H398.952V12.24H404.372V13.66H398.952V20H397.25199V6H405.512V7.5ZM424.06 5.8C427.7 5.8 431.22 8.76 431.22 13 431.22 17.24 427.7 20.2 424.06 20.2 420.4 20.2 416.9 17.240002 416.9 13.000001 416.9 8.76 420.4 5.800001 424.06 5.800001V5.8ZM424.06 18.62C426.8 18.62 429.5 16.300002 429.5 13.000001 429.5 9.700001 426.8 7.380001 424.06 7.380001 421.3 7.380001 418.62 9.700001 418.62 13.000001 418.62 16.300002 421.3 18.62 424.06 18.62ZM453.788 20H451.988L448.448 14.96H448.068 445.168V20H443.508V6H448.068C451.208 6 453.02799 7.92 453.02799 10.52 453.02799 12.52 451.948 14.08 450.02799 14.68L453.788 20ZM445.168 7.56V13.48H448.02799C450.04798 13.48 451.36799 12.44 451.36799 10.5199999 451.36799 8.58 450.04798 7.5599997 448.02799 7.5599997H445.168V7.56ZM491.724 6H493.384V20H492.104L483.624 9.04V20H481.964V6H483.244L491.724 16.98V6ZM517.292 20 515.852 16.7H508.37199L506.93199 20H505.17198L511.41197 6H512.79196L519.05197 20H517.29196 517.292ZM508.992 15.3H515.232L512.112 8.18 508.992 15.3ZM539.34 6H541V14.92C541 18.36 538.76 20.3 535.92 20.3 533.07998 20.3 530.83999 18.359999 530.83999 14.919999V5.999999H532.49996V14.919999C532.49996 17.539999 534.05996 18.72 535.9199 18.72 537.7799 18.72 539.3399 17.539999 539.3399 14.919999V5.999999L539.34 6ZM562.628 6V7.56H558.748V20H557.088V7.5600006H553.188V6.0000007H562.628V6ZM576.476 6V20H574.81607V6H576.476ZM600.624 18.5C599.344 19.6 597.724 20.2 595.924 20.2 592.284 20.2 588.76406 17.240002 588.76406 13.000001 588.76406 8.76 592.28408 5.800001 595.924 5.800001 597.70407 5.800001 599.304 6.400001 600.564 7.460001L599.544 8.620001C598.564 7.840001 597.304 7.380001 596.044 7.380001 593.184 7.380001 590.484 9.700001 590.484 13.000001 590.484 16.300002 593.184 18.62 596.044 18.62 597.32406 18.62 598.604 18.140002 599.584 17.34L600.624 18.5ZM624.032 20 622.592 16.7H615.112L613.672 20H611.912L618.152 6H619.532L625.792 20H624.032ZM615.732 15.3H621.972L618.852 8.18 615.732 15.3ZM639.24 18.44H645.52V20H637.58V6H639.24V18.439999 18.44ZM685.216 20 683.776 16.7H676.296L674.856 20H673.096L679.336 6H680.716L686.976 20H685.216ZM676.916 15.3H683.156L680.036 8.18 676.916 15.3ZM703.324 6C706.464 6 708.284 7.92 708.284 10.52 708.284 13.120001 706.464 14.960001 703.324 14.960001H700.42398V20H698.764V6H703.324ZM703.284 13.48C705.304 13.48 706.624 12.44 706.624 10.5199999 706.624 8.58 705.304 7.5599997 703.284 7.5599997H700.424V13.48H703.284ZM724.932 6C728.072 6 729.892 7.92 729.892 10.52 729.892 13.120001 728.072 14.960001 724.932 14.960001H722.032V20H720.372V6H724.932ZM724.892 13.48C726.91207 13.48 728.23208 12.44 728.23208 10.5199999 728.23208 8.58 726.91207 7.5599997 724.892 7.5599997H722.03207V13.48H724.892ZM743.64 18.44H749.92007V20H741.98007V6H743.64V18.439999 18.44ZM763.768 6V20H762.10806V6H763.768ZM787.916 18.5C786.636 19.6 785.016 20.2 783.216 20.2 779.576 20.2 776.056 17.240002 776.056 13.000001 776.056 8.76 779.57608 5.800001 783.216 5.800001 784.99606 5.800001 786.596 6.400001 787.856 7.460001L786.836 8.620001C785.856 7.840001 784.596 7.380001 783.336 7.380001 780.476 7.380001 777.776 9.700001 777.776 13.000001 777.776 16.300002 780.476 18.62 783.336 18.62 784.616 18.62 785.896 18.140002 786.876 17.34L787.916 18.5ZM811.324 20 809.884 16.7H802.404L800.964 20H799.204L805.444 6H806.824L813.084 20H811.324ZM803.024 15.3H809.264L806.144 8.18 803.024 15.3ZM833.912 6V7.56H830.032V20H828.372V7.5600006H824.472V6.0000007H833.912V6ZM847.76 6V20H846.10006V6H847.76ZM867.208 5.8C870.848 5.8 874.368 8.76 874.368 13 874.368 17.24 870.84799 20.2 867.208 20.2 863.54806 20.2 860.04806 17.240002 860.04806 13.000001 860.04806 8.76 863.54806 5.800001 867.208 5.800001V5.8ZM867.208 18.62C869.948 18.62 872.648 16.300002 872.648 13.000001 872.648 9.700001 869.948 7.380001 867.208 7.380001 864.448 7.380001 861.768 9.700001 861.768 13.000001 861.768 16.300002 864.448 18.62 867.208 18.62ZM896.416 6H898.076V20H896.79598L888.316 9.04V20H886.656V6H887.93606L896.416 16.98V6ZM914.964 5.76C917.144 5.76 918.744 7.2000005 919.344 8.700001L918.084 9.380001C917.444 8.100001 916.424 7.260001 914.964 7.260001 913.424 7.260001 912.364 8.140001 912.364 9.360001 912.364 10.500001 913.084 11.22 914.604 11.800001L915.624 12.180001C918.14407 13.120001 919.724 14.200001 919.724 16.420002 919.724 18.820002 917.424 20.300004 915.044 20.300004 912.664 20.300004 910.704 18.860003 910.164 16.860003L911.504 16.220004C911.984 17.700003 913.244 18.780003 915.044 18.780003 916.644 18.780003 918.004 17.860003 918.004 16.440003 918.004 14.840002 916.88406 14.240003 915.224 13.600002L914.184 13.200003C912.064 12.4000029 910.70407 11.300003 910.70407 9.320003 910.70407 7.2800028 912.504 5.7600028 914.96408 5.7600028L914.964 5.76Z"/>
</g>
</svg>
