<svg xmlns="http://www.w3.org/2000/svg" xmlns:xlink="http://www.w3.org/1999/xlink" version="1.1" width="600.92pt" height="599.04pt" viewBox="0 0 600.92 599.04" style="background-color:white">
    <defs>
        <clipPath id="clip_0">
            <path transform="matrix(.24,0,0,.24,0,0)" d="M0 0H9883.333V2494.2757H0Z" fill-rule="evenodd"/>
        </clipPath>
    </defs>
    <g clip-path="url(#clip_0)">
        <path transform="matrix(20.032423,0,0,20.027346,34.372724,-5383.8635)" d="M13.213772 271.8645C13.213772 271.8645 12.883358 273.43873 12.718284 274.1845 8.217846 274.45243 4.1691935 278.0541 3.6593238 282.91777L1.3230519 283.31407V283.77714C1.3230519 283.77714 2.9365507 284.11125 3.6330453 284.25837 3.8316396 289.12446 7.617283 293.06843 12.415957 293.51429L12.773908 295.67716H13.234993C13.234993 295.67716 13.534201 294.21147 13.675847 293.54759 18.6182 293.3674 22.62019 289.48857 22.99061 284.59797L25.13528 284.2421V283.7275C25.13528 283.7275 23.591063 283.47779 23.000613 283.35246 22.747694 278.4874 18.908944 274.56736 14.077295 274.19169L13.691035 271.86457 13.213772 271.8645ZM13.706205 275.20466C13.711705 275.2049 13.716966 275.20518 13.7224459 275.20567L14.79933 281.54478 13.736599 282.5649 13.706205 275.20466ZM12.487759 275.22795 11.39773 280.16175 11.283478 280.07374 7.632189 277.3278C8.957969 276.17057 10.633173 275.40428 12.487764 275.22789L12.487759 275.22795ZM14.25526 275.23963C16.166087 275.4446 17.889748 276.2659 19.221035 277.5053L15.080365 280.11073 14.25526 275.23963ZM6.982008 277.9441 9.481586 281.91545 4.7321798 282.73237C4.970908 280.89234 5.778166 279.23368 6.982008 277.94413V277.9441ZM19.803463 278.119C21.006737 279.47834 21.796029 281.21247 21.955206 283.1327L16.799338 282.0529 16.886288 281.93766 19.803463 278.119ZM9.563491 279.4313 10.83654 280.39079 10.78295 280.63548 9.563491 279.4313ZM17.524336 280.25328 16.572838 281.4948 16.339257 281.4453 17.524336 280.25328ZM10.924509 282.1904 12.002404 283.26817 4.6806108 283.29756C4.681127 283.28755 4.682161 283.27656 4.6827709 283.26625L10.924509 282.1904ZM21.888472 284.25794 15.45652 285.34983 14.436258 284.28828 21.888472 284.25794ZM4.6806108 284.47935 9.6423649 285.5318C8.654676 286.82499 7.667135 288.11878 6.67967 289.4121 5.5464966 288.05696 4.813057 286.35487 4.680611 284.47969L4.6806108 284.47935ZM21.94206 284.77558C21.734158 286.7518 20.863055 288.52555 19.55573 289.8762L16.88427 285.63227 21.94206 284.77558ZM12.728416 284.9717 12.758746 292.427 11.665683 285.99589 12.728416 284.9717ZM9.869871 286.0879 10.102438 286.1374 8.917363 287.3294 9.869871 286.0879ZM15.574821 286.93614 16.763945 288.1059 15.529321 287.16566 15.574821 286.93614ZM14.970147 287.39006C16.296875 288.40437 17.624348 289.41896 18.951058 290.43324 17.572674 291.6129 15.82501 292.37416 13.896303 292.5008L14.970147 287.39006ZM11.389643 287.44566 12.235979 292.45429C10.304952 292.21345 8.575041 291.34236 7.257042 290.04743L11.389643 287.44566Z" fill="#1d3545"/>
    </g>
</svg>
