<svg xmlns="http://www.w3.org/2000/svg" xmlns:xlink="http://www.w3.org/1999/xlink" version="1.1" width="2371.92pt" height="599.04pt" viewBox="0 0 2371.92 599.04">
<defs>
<clipPath id="clip_0">
<path transform="matrix(.24,0,0,.24,0,0)" d="M0 0H9883.333V2494.2757H0Z" fill-rule="evenodd"/>
</clipPath>
</defs>
<g clip-path="url(#clip_0)">
<path transform="matrix(20.032423,0,0,20.027346,34.372724,-5383.8635)" d="M13.213772 271.8645C13.213772 271.8645 12.883358 273.43873 12.718284 274.1845 8.217846 274.45243 4.1691935 278.0541 3.6593238 282.91777L1.3230519 283.31407V283.77714C1.3230519 283.77714 2.9365507 284.11125 3.6330453 284.25837 3.8316396 289.12446 7.617283 293.06843 12.415957 293.51429L12.773908 295.67716H13.234993C13.234993 295.67716 13.534201 294.21147 13.675847 293.54759 18.6182 293.3674 22.62019 289.48857 22.99061 284.59797L25.13528 284.2421V283.7275C25.13528 283.7275 23.591063 283.47779 23.000613 283.35246 22.747694 278.4874 18.908944 274.56736 14.077295 274.19169L13.691035 271.86457 13.213772 271.8645ZM13.706205 275.20466C13.711705 275.2049 13.716966 275.20518 13.7224459 275.20567L14.79933 281.54478 13.736599 282.5649 13.706205 275.20466ZM12.487759 275.22795 11.39773 280.16175 11.283478 280.07374 7.632189 277.3278C8.957969 276.17057 10.633173 275.40428 12.487764 275.22789L12.487759 275.22795ZM14.25526 275.23963C16.166087 275.4446 17.889748 276.2659 19.221035 277.5053L15.080365 280.11073 14.25526 275.23963ZM6.982008 277.9441 9.481586 281.91545 4.7321798 282.73237C4.970908 280.89234 5.778166 279.23368 6.982008 277.94413V277.9441ZM19.803463 278.119C21.006737 279.47834 21.796029 281.21247 21.955206 283.1327L16.799338 282.0529 16.886288 281.93766 19.803463 278.119ZM9.563491 279.4313 10.83654 280.39079 10.78295 280.63548 9.563491 279.4313ZM17.524336 280.25328 16.572838 281.4948 16.339257 281.4453 17.524336 280.25328ZM10.924509 282.1904 12.002404 283.26817 4.6806108 283.29756C4.681127 283.28755 4.682161 283.27656 4.6827709 283.26625L10.924509 282.1904ZM21.888472 284.25794 15.45652 285.34983 14.436258 284.28828 21.888472 284.25794ZM4.6806108 284.47935 9.6423649 285.5318C8.654676 286.82499 7.667135 288.11878 6.67967 289.4121 5.5464966 288.05696 4.813057 286.35487 4.680611 284.47969L4.6806108 284.47935ZM21.94206 284.77558C21.734158 286.7518 20.863055 288.52555 19.55573 289.8762L16.88427 285.63227 21.94206 284.77558ZM12.728416 284.9717 12.758746 292.427 11.665683 285.99589 12.728416 284.9717ZM9.869871 286.0879 10.102438 286.1374 8.917363 287.3294 9.869871 286.0879ZM15.574821 286.93614 16.763945 288.1059 15.529321 287.16566 15.574821 286.93614ZM14.970147 287.39006C16.296875 288.40437 17.624348 289.41896 18.951058 290.43324 17.572674 291.6129 15.82501 292.37416 13.896303 292.5008L14.970147 287.39006ZM11.389643 287.44566 12.235979 292.45429C10.304952 292.21345 8.575041 291.34236 7.257042 290.04743L11.389643 287.44566Z" fill="#1d3545"/>
<path transform="matrix(4.472972,0,0,4.471838,650.6666,171.23328) translate(0, 18)" d="M11.04 17.24V5.6399996H12.92V20H10.74L3.4399996 8.4H3.3999997V20H1.5199996V5.6400005H3.8199998L11 17.240002H11.04V17.24ZM40.64 15.82H34.879999L33.379999 20H31.379998L36.78 5.6400005H38.98L44.18 20H42.06L40.64 15.82ZM35.48 14.1H39.94L37.82 7.78H37.78L35.48 14.1ZM72.04 5.64H73.98V14.959999C73.98 17.9 72.14001 20.38 68.200008 20.38 64.340007 20.38 62.680006 17.9 62.680006 15.219999V5.6399996H64.62V14.679999C64.62 17.8 66.520008 18.66 68.26 18.66 70.04 18.66 72.04 17.84 72.04 14.719999V5.6399996 5.64ZM92.48 7.36V5.6400005H104.14V7.3600008H99.28V20H97.34V7.3599998H92.479999L92.48 7.36ZM124.84 5.64V20H122.899997V5.6400005H124.84V5.64ZM156.78 9.96H154.9C154.36 7.44 152.26 6.98 150.87999 6.98 148.27999 6.98 146.18 8.9 146.18 12.68 146.18 16.060002 147.37999 18.66 150.93999 18.66 152.19998 18.66 154.37999 18.06 155.04 14.719999H156.92C156.12 20.14 151.72 20.38 150.64 20.38 147.38 20.38 144.18 18.259999 144.18 12.74 144.18 8.32 146.7 5.2599999 150.87999 5.2599999 154.57999 5.2599999 156.49999 7.5599997 156.77999 9.959999L156.78 9.96ZM186.4 9.84H184.57999C184.47998 7.62 182.63999 6.92 181.01999 6.92 179.79999 6.92 177.73999 7.26 177.73999 9.440001 177.73999 10.660001 178.59999 11.06 179.43999 11.26L183.54 12.200001C185.4 12.64 186.79999 13.76 186.79999 16.04 186.79999 19.44 183.63999 20.380002 181.18 20.380002 178.51999 20.380002 177.48 19.580002 176.84 19.000002 175.62 17.900002 175.37999 16.700003 175.37999 15.360002H177.2C177.2 17.960001 179.31999 18.720002 181.16 18.720002 182.56 18.720002 184.92 18.36 184.92 16.300002 184.92 14.800001 184.22 14.320002 181.86 13.760001L178.92 13.080001C177.98 12.860001 175.86 12.200001 175.86 9.700001 175.86 7.460001 177.32 5.2600009 180.8 5.2600009 185.82 5.2600009 186.32 8.26 186.40001 9.84H186.4ZM216.72 18.28V20H206.12V5.6400005H216.58V7.3600008H208.06V11.76H215.92V13.4800009H208.06V18.28H216.72ZM245.44 17.24V5.6399996H247.32V20H245.14002L237.84001 8.4H237.80002V20H235.92002V5.6400005H238.22002L245.40001 17.240002H245.44V17.24ZM277.5 9.84H275.68C275.58 7.62 273.74 6.92 272.12 6.92 270.9 6.92 268.84 7.26 268.84 9.440001 268.84 10.660001 269.69999 11.06 270.54 11.26L274.64 12.200001C276.5 12.64 277.90003 13.76 277.90003 16.04 277.90003 19.44 274.74003 20.380002 272.28004 20.380002 269.62004 20.380002 268.58003 19.580002 267.94004 19.000002 266.72004 17.900002 266.48005 16.700003 266.48005 15.360002H268.30006C268.30006 17.960001 270.42005 18.720002 272.26005 18.720002 273.66004 18.720002 276.02006 18.36 276.02006 16.300002 276.02006 14.800001 275.32005 14.320002 272.96006 13.760001L270.02006 13.080001C269.08006 12.860001 266.96006 12.200001 266.96006 9.700001 266.96006 7.460001 268.42005 5.2600009 271.90007 5.2600009 276.92005 5.2600009 277.42005 8.26 277.50007 9.84H277.5ZM308.28 12.82C308.28 9.44 306.4 6.9799997 303.28 6.9799997 300.16 6.9799997 298.28 9.44 298.28 12.82 298.28 16.2 300.16 18.66 303.28 18.66 306.4 18.66 308.28 16.2 308.28 12.82ZM310.28 12.82C310.28 15.92 308.63999 20.38 303.28 20.38 297.92 20.38 296.28 15.919999 296.28 12.82 296.28 9.72 297.92 5.2599999 303.28 5.2599999 308.63999 5.2599999 310.28 9.719999 310.28 12.82ZM331.42 13.84V20H329.48V5.6400005H336.12004C338.48 5.6400005 340.84004 6.4600007 340.84004 9.5 340.84004 11.62 339.76005 12.4 338.84004 12.940001 339.66004 13.280001 340.48005 13.64 340.56004 15.64L340.68003 18.24C340.7 19.039999 340.80003 19.34 341.40003 19.68V20H339.02003C338.74003 19.12 338.68003 16.94 338.68003 16.4 338.68003 15.219999 338.44004 13.84 336.12004 13.84H331.42ZM331.42 7.3V12.18H335.92C337.34004 12.18 338.84004 11.820001 338.84004 9.700001 338.84004 7.4800007 337.22004 7.3000009 336.26005 7.3000009H331.42005L331.42 7.3ZM370.82 9.84H369C368.9 7.62 367.06 6.92 365.44 6.92 364.22 6.92 362.16 7.26 362.16 9.440001 362.16 10.660001 363.02 11.06 363.86003 11.26L367.96003 12.200001C369.82 12.64 371.22004 13.76 371.22004 16.04 371.22004 19.44 368.06004 20.380002 365.60005 20.380002 362.94004 20.380002 361.90003 19.580002 361.26005 19.000002 360.04005 17.900002 359.80006 16.700003 359.80006 15.360002H361.62007C361.62007 17.960001 363.74006 18.720002 365.58006 18.720002 366.98005 18.720002 369.34007 18.36 369.34007 16.300002 369.34007 14.800001 368.64006 14.320002 366.28007 13.760001L363.34007 13.080001C362.40007 12.860001 360.28007 12.200001 360.28007 9.700001 360.28007 7.460001 361.74006 5.2600009 365.22007 5.2600009 370.24006 5.2600009 370.74006 8.26 370.82008 9.84H370.82Z"/>
</g>
</svg>
