<?xml version="1.0" standalone="no"?>
<!DOCTYPE svg PUBLIC "-//W3C//DTD SVG 20010904//EN"
 "http://www.w3.org/TR/2001/REC-SVG-20010904/DTD/svg10.dtd">
<svg version="1.0" xmlns="http://www.w3.org/2000/svg"
 width="3163.000000pt" height="799.000000pt" viewBox="0 0 3163.000000 799.000000"
 preserveAspectRatio="xMidYMid meet">

<g transform="translate(0.000000,799.000000) scale(0.100000,-0.100000)"
fill="#000000" stroke="none">
<path d="M3985 7158 c-3 -13 -32 -151 -66 -308 -33 -157 -62 -287 -64 -289 -2
-2 -46 -7 -97 -12 -866 -84 -1673 -649 -2063 -1443 -123 -251 -194 -474 -238
-741 l-23 -140 -239 -41 c-132 -23 -273 -47 -313 -54 l-73 -12 3 -61 3 -60
304 -64 c167 -34 305 -64 307 -65 1 -2 7 -59 14 -128 59 -625 324 -1180 771
-1615 197 -193 372 -320 600 -440 275 -143 516 -222 819 -269 l145 -22 37
-220 c21 -120 42 -250 49 -287 l11 -68 61 3 61 3 48 230 c26 127 52 253 58
281 l11 51 92 6 c916 61 1758 636 2152 1472 129 273 198 522 240 868 4 26 9
47 13 47 4 0 128 20 277 45 148 25 273 45 277 45 5 0 8 31 8 69 l0 69 -72 12
c-99 16 -448 79 -474 85 -19 4 -22 16 -33 126 -119 1181 -1022 2127 -2200
2304 -56 8 -117 15 -136 15 -19 0 -35 1 -36 3 0 1 -24 142 -52 312 l-52 310
-62 3 c-58 3 -63 1 -68 -20z m-195 -890 c0 -41 -286 -1298 -295 -1296 -9 3
-965 717 -990 740 -11 10 -11 10 130 117 289 220 634 368 1005 431 129 22 150
23 150 8z m480 -833 l143 -841 -132 -129 c-73 -72 -136 -131 -140 -133 -4 -1
-11 133 -14 299 -7 318 -10 1655 -3 1648 2 -2 68 -382 146 -844z m205 809
c275 -53 578 -178 813 -334 120 -80 302 -224 302 -239 0 -5 -6 -11 -13 -14 -6
-2 -252 -156 -546 -341 -294 -185 -537 -336 -540 -336 -6 0 -222 1260 -221
1287 0 14 25 11 205 -23z m-1815 -1223 c182 -288 329 -525 327 -527 -4 -4
-1225 -214 -1246 -214 -23 0 -22 13 16 190 58 269 178 554 331 785 81 122 221
296 235 292 4 -1 156 -238 337 -526z m3161 402 c264 -328 459 -794 495 -1182
l7 -74 -24 6 c-13 3 -322 68 -687 144 -364 76 -661 141 -659 146 6 18 789
1037 797 1037 5 0 36 -35 71 -77z m-2617 -408 c144 -108 161 -127 138 -161 -4
-7 -65 45 -162 139 -85 82 -148 146 -139 141 9 -5 82 -58 163 -119z m1850
-192 c-158 -205 -165 -213 -188 -213 -13 0 -26 3 -30 7 -5 6 271 293 282 293
2 0 -27 -39 -64 -87z m-1534 -548 l145 -145 -580 0 c-319 0 -760 -3 -980 -6
-233 -4 -397 -3 -392 2 7 7 1588 288 1647 293 8 0 80 -64 160 -144z m2759
-409 c-6 -6 -1651 -286 -1678 -286 -12 0 -70 53 -151 138 l-131 137 508 5
c771 8 1457 11 1452 6z m-3890 -201 c348 -74 635 -136 638 -139 2 -2 -173
-236 -389 -520 l-393 -516 -33 38 c-63 71 -209 300 -269 423 -111 225 -185
462 -217 698 -22 153 -21 163 7 156 12 -3 307 -66 656 -140z m3926 13 c-47
-365 -195 -742 -413 -1047 -95 -133 -212 -265 -224 -253 -19 19 -707 1117
-702 1121 3 4 1302 228 1332 230 11 1 12 -11 7 -51z m-2455 -485 c0 -263 2
-705 5 -983 3 -278 2 -499 -1 -491 -4 7 -70 389 -148 847 l-142 833 136 136
c74 74 138 135 142 135 5 0 8 -215 8 -477z m-710 171 c2 -3 -63 -71 -144 -152
-154 -151 -154 -148 -1 51 81 107 92 117 115 112 14 -4 27 -9 30 -11z m1620
-360 l145 -147 -152 114 c-127 95 -152 118 -153 140 0 20 7 39 14 39 1 0 66
-66 146 -146z m305 -443 c226 -172 418 -320 427 -330 17 -15 14 -19 -44 -66
-162 -132 -399 -267 -612 -350 -188 -74 -501 -145 -635 -145 -38 0 -41 2 -36
23 3 12 66 312 140 667 75 355 138 651 140 658 3 9 39 -13 107 -66 57 -43 288
-219 513 -391z m-1464 -192 c59 -349 110 -647 113 -663 l6 -29 -52 7 c-369 48
-801 236 -1103 481 -154 125 -182 153 -165 164 323 208 1078 679 1085 677 5
-1 57 -288 116 -637z"/>
</g>
</svg>
